<svg xmlns="http://www.w3.org/2000/svg" width="226" height="80" viewBox="0 0 226 80">
    <defs>
        <linearGradient id="a" x1="51.821%" x2="46.468%" y1="100.798%" y2="-.201%">
            <stop offset="0%" stop-color="#E24301"/>
            <stop offset="100%" stop-color="#E2231A"/>
        </linearGradient>
        <linearGradient id="b" x1="52.421%" x2="47.378%" y1="101.05%" y2=".626%">
            <stop offset="0%" stop-color="#E24301"/>
            <stop offset="100%" stop-color="#E2231A"/>
        </linearGradient>
        <linearGradient id="c" x1="54.391%" x2="50.359%" y1="100.726%" y2="1.889%">
            <stop offset="0%" stop-color="#E24301"/>
            <stop offset="100%" stop-color="#E2231A"/>
        </linearGradient>
        <linearGradient id="d" x1="52.464%" x2="47.421%" y1="101.05%" y2=".626%">
            <stop offset="0%" stop-color="#E24301"/>
            <stop offset="100%" stop-color="#E2231A"/>
        </linearGradient>
        <linearGradient id="e" x1="52.949%" x2="49.027%" y1="98.672%" y2="-.727%">
            <stop offset="0%" stop-color="#E24301"/>
            <stop offset="100%" stop-color="#E2231A"/>
        </linearGradient>
        <linearGradient id="f" x1="52.369%" x2="47.503%" y1="99.321%" y2="-.453%">
            <stop offset="0%" stop-color="#E24301"/>
            <stop offset="100%" stop-color="#E2231A"/>
        </linearGradient>
        <linearGradient id="g" x1="52.557%" x2="47.514%" y1="101.05%" y2=".626%">
            <stop offset="0%" stop-color="#E24301"/>
            <stop offset="100%" stop-color="#E2231A"/>
        </linearGradient>
        <linearGradient id="h" x1="25.029%" x2="75.048%" y1="93.316%" y2="6.681%">
            <stop offset="0%" stop-color="#E2231A"/>
            <stop offset="100%" stop-color="#E24301"/>
        </linearGradient>
        <linearGradient id="i" x1="37.677%" x2="64.032%" y1="-.455%" y2="102.974%">
            <stop offset="0%" stop-color="#E24301"/>
            <stop offset="43.89%" stop-color="#E24103"/>
            <stop offset="70.68%" stop-color="#E2380A"/>
            <stop offset="92.82%" stop-color="#E22A15"/>
            <stop offset="100%" stop-color="#E2231A"/>
        </linearGradient>
        <linearGradient id="j" x1="21.687%" x2="58.301%" y1="-2.497%" y2="104.767%">
            <stop offset="0%" stop-color="#E24301"/>
            <stop offset="36.03%" stop-color="#E24004"/>
            <stop offset="70.18%" stop-color="#E2340D"/>
            <stop offset="100%" stop-color="#E2231A"/>
        </linearGradient>
        <linearGradient id="k" x1="29.033%" x2="56.799%" y1="-2.868%" y2="103.638%">
            <stop offset="0%" stop-color="#E24301"/>
            <stop offset="100%" stop-color="#E2231A"/>
        </linearGradient>
    </defs>
    <g fill="none" fill-rule="evenodd">
        <g fill-rule="nonzero">
            <path fill="url(#a)" d="M13.89 18.118c.235.588.353 1.176.353 1.647 0 .588-.118 1.176-.471 1.764-.353.118-1.295.236-2.943.236-1.53 0-3.413-.118-5.297-.236-1.883-.117-2.942-.235-3.296-.353-.235-.117-.588-1.882-.824-5.411-.235-3.294-.353-6.47-.353-9.412 0-2.588.118-4 .354-4.235.235-.236.941-.353 1.883-.353 1.06 0 2 .117 3.178.353 1.06.235 1.766.47 1.883.706v.588c0 2.117-.588 7.294-1.765 15.412 2.59-.589 4.473-.942 5.885-.942.706 0 1.177.118 1.413.236z" transform="translate(15.302 47.059)"/>
            <path fill="url(#b)" d="M29.192 15.882c.353.236.47 1.06.47 2.236 0 1.882-.235 2.94-.588 3.294-.235.235-1.53.235-4.002.235-4.826 0-7.416-.235-7.887-.588-.235-.235-.588-2.353-1.059-6.588-.47-4.353-.706-7.765-.706-10.118 0-1.412.117-2.235.353-2.353.353-.235 1.648-.47 3.884-.588 2.001-.236 4.002-.236 5.768-.236 1.648 0 2.472.118 2.59.236.235.47.353 1.647.353 3.647 0 1.294-.118 2-.353 2.117-.236.118-.942.118-2.001.118-1.295 0-2.943-.118-5.062-.235l-.118 3.53c2.12-.118 3.414-.118 3.65 0 .117.235 0 1.058-.236 2.235l-3.414.588v3.059c3.06-.706 5.415-.942 6.945-.942.706.118 1.177.236 1.413.353z" transform="translate(15.302 47.059)"/>
            <path fill="url(#c)" d="M48.731 1.53c.118.352-.588 3.764-2.236 10.235-1.648 6.47-2.59 9.764-2.943 10-.353.235-1.06.353-2.354.353-1.53 0-2.59-.236-3.178-.706-.589-.588-2.119-3.647-4.473-9.412-2.472-5.882-3.531-9.176-3.178-9.765.353-.706 1.648-1.059 4.002-1.059 2 0 3.178.236 3.531.589.236.353.47 1.059.706 2.117.707 2.589 1.648 6.706 2.943 12.47 1.413-8.823 2.472-14 3.178-15.293.353-.353.824-.47 1.648-.47.47 0 1.06.117 1.413.235.588.352.941.47.941.705z" transform="translate(15.302 47.059)"/>
            <path fill="url(#d)" d="M64.033 15.882c.353.236.471 1.06.471 2.236 0 1.882-.235 2.94-.588 3.294-.236.235-1.53.235-4.002.235-4.827 0-7.416-.235-7.887-.588-.235-.235-.588-2.353-1.06-6.588-.47-4.353-.706-7.765-.706-10.118 0-1.412.118-2.235.354-2.353.353-.235 1.648-.47 3.884-.588 2.001-.236 4.002-.236 5.768-.236 1.648 0 2.472.118 2.59.236.235.47.352 1.647.352 3.647 0 1.294-.117 2-.353 2.117-.235.118-.941.118-2 .118-1.296 0-2.944-.118-5.062-.235l-.118 3.53c2.119-.118 3.414-.118 3.649 0 .118.235 0 1.058-.235 2.235l-3.414.588v3.059c3.06-.706 5.415-.942 6.945-.942.706.118 1.177.236 1.412.353z" transform="translate(15.302 47.059)"/>
            <path fill="url(#e)" d="M84.515 2.824v.823c0 2.118-.236 5.53-.707 10.235-.47 5.06-.941 7.765-1.294 8-.589.47-2.001.706-4.238.706-1.412 0-2.354-.117-2.707-.47-.236-.353-.589-1.06-1.06-2.118-1.059-2.588-2.59-6.824-4.355-12.824.471 5.883.706 10.236.706 12.824 0 1.294 0 2-.117 2.235-.353.47-1.177.706-2.472.706-.942 0-1.413-.117-1.648-.47-.353-.471-.47-3.412-.47-8.942 0-6.47.234-10 .823-10.47.589-.588 2.237-.824 4.708-.824 1.53 0 2.472.118 2.825.47.236.354.589.942.942 2 1.06 2.471 2.59 6.59 4.708 12.236-.117-4.588-.235-8.117-.235-10.588 0-2.118 0-3.294.118-3.647.235-.353.941-.47 2-.47 1.53-.118 2.355.117 2.473.588z" transform="translate(15.302 47.059)"/>
            <path fill="url(#f)" d="M101.23 8.118c0 .47.117.823.117 1.294 0 3.53-1.413 6.47-4.238 8.823-2.59 2.118-5.296 3.177-8.24 3.177-.352-1.06-.823-3.412-1.176-7.177-.353-3.764-.589-6.823-.589-9.294 0-1.53.118-2.47.236-2.706.235-.47 1.412-.706 3.53-.706 2.473 0 4.71.471 6.593 1.412 2.118 1.177 3.53 2.941 3.766 5.177zm-4.945 2.117c0-2.588-1.177-3.882-3.53-3.882h-.707c0 .588 0 4.353-.118 11.176 2.707-1.647 4.12-4 4.355-7.294z" transform="translate(15.302 47.059)"/>
            <path fill="url(#g)" d="M117.12 15.882c.353.236.47 1.06.47 2.236 0 1.882-.235 2.94-.588 3.294-.235.235-1.53.235-4.002.235-4.826 0-7.416-.235-7.886-.588-.236-.235-.589-2.353-1.06-6.588-.47-4.353-.706-7.765-.706-10.118 0-1.412.118-2.235.353-2.353.353-.235 1.648-.47 3.884-.588 2.001-.236 4.003-.236 5.768-.236 1.648 0 2.472.118 2.59.236.235.47.353 1.647.353 3.647 0 1.294-.118 2-.353 2.117-.236.118-.942.118-2.001.118-1.295 0-2.943-.118-5.062-.235l-.117 3.53c2.118-.118 3.413-.118 3.648 0 .118.235 0 1.058-.235 2.235l-3.413.588v3.059c3.06-.706 5.414-.942 6.944-.942.707.118 1.177.236 1.413.353z" transform="translate(15.302 47.059)"/>
        </g>
        <path fill="#F26522" fill-rule="nonzero" d="M225.882 39.882c0 10.118-3.766 20.236-10.829 27.765-3.531 3.765-7.886 6.824-12.595 8.824-4.826 2-10.005 3.058-15.184 2.94-5.18-.117-10.358-1.176-14.949-3.293-4.708-2.118-8.946-5.06-12.477-8.706-3.531-3.647-6.474-7.883-8.475-12.588-2.001-4.706-3.06-9.765-3.178-14.942-.236-10.235 3.766-20.706 11.182-28 3.649-3.647 8.004-6.706 12.83-8.706 4.826-2 10.006-3.058 15.185-3.058s10.358 1.058 15.184 3.176c4.826 2 9.064 5.059 12.595 8.824 6.945 7.53 10.711 17.647 10.711 27.764zm-.235 0c0-5.058-1.06-10-3.06-14.588-2.002-4.588-4.944-8.706-8.593-12.118-7.18-6.705-16.95-10.705-26.72-10.588-9.77 0-19.54 3.883-26.484 10.824a35.739 35.739 0 0 0-8.24 12.117c-1.883 4.471-3.06 9.412-3.178 14.353-.236 9.883 3.767 20 10.947 26.942 7.18 7.058 17.185 10.823 26.955 10.588 9.887-.118 19.54-4 26.72-10.824 3.649-3.412 6.591-7.53 8.592-12.117 2.001-4.471 3.06-9.53 3.06-14.589z"/>
        <path fill="url(#h)" fill-rule="nonzero" d="M187.51 74.47c-19.113 0-34.607-15.485-34.607-34.588 0-19.102 15.494-34.588 34.606-34.588 19.113 0 34.607 15.486 34.607 34.588 0 19.103-15.494 34.589-34.607 34.589zm12.476-39.294c5.65 4.824 10.241 18.589 5.18 22.236-1.06.823-1.648 1.059-3.296 1.294-.589.118-4.944.706-5.415-2.706-2.472 1.294-1.06 3.176-1.412 3.176-5.18-.117-8.24-2.235-11.536-5.176-5.061-4.47-2.472-15.765-6.356-15.53-1.295.354-2.119 4.471-1.766 9.06.236 3.176.471 6.47 3.65 9.764 8.004 8.118 21.187 8.824 28.485 3.53 9.063-6.706 4.826-26.589-7.416-31.412-8.946-3.412-16.244-1.177-16.95 1.53-.588 2.705 11.182-.59 16.832 4.234zm-32.016-8.588c-.353.706-5.297-.706-6.592.941-9.77 12.236 4.59 10.824 7.533 10.471 4.238-.353 6.945-2.47 6.71-3.294-.236-.941-4.355.823-7.298.823-3.06 0-5.062-4.235-1.177-5.764 1.765-.706 4.59.588 4.944.117.353-.588-1.413-2.588-1.06-4.706.471-3.411 4.944-3.411 6.121-.235 1.06 2.824.235 6.824 1.06 6.824.823 0 2.471-2.236 1.765-6.941-1.06-6.118-3.531-16.589-13.066-3.648-.824 1.295 1.53 4.824 1.06 5.412zm26.837 25.53c1.177.823 2.59 1.058 4.356.588 1.177-.353 2.118-1.059 2.59-2.235.588-1.177.588-2.589.235-4.118-.354-1.294-1.06-2.353-2.12-3.059-1.059-.706-2.236-.941-3.413-.588-1.177.235-2.236 1.059-3.06 2.235-.824 1.294-1.06 2.588-.706 4 .353 1.412 1.059 2.353 2.118 3.177z"/>
        <path fill="url(#h)" d="M196.102 48.235c.118-.588.589-1.53 1.53-1.764 1.06-.236 1.766 0 2.237.353.588.352 1.295 1.882.588 3.058-.706 1.177-2.707 1.765-3.884.589-.589-.589-.589-1.647-.47-2.236z"/>
        <g fill-rule="nonzero">
            <path fill="#E24301" d="M19.069 15.647c.353.588.588 2.235.588 4.824 0 3.411-.353 5.058-.941 5.058-.707-.588-1.53-1.176-2.237-1.764-1.295-.824-2.707-1.177-4.237-1.177-.942 0-1.766.236-2.355.706-.588.47-.823 1.177-.823 2 0 .706.47 1.53 1.294 2.47.707.589 1.413 1.295 2.12 1.883 1.882 1.647 2.942 2.706 3.295 3.059a7.766 7.766 0 0 1 1.53 4.706c0 1.412-.47 2.588-1.412 3.53-1.177 1.293-3.06 1.882-5.533 1.882-1.53 0-2.942-.353-4.355-.942-1.295-.588-2.119-1.176-2.472-1.882-.117-.235-.235-.47-.235-.824 0-.823.47-1.647 1.53-2.588l2.001 2c.824.588 1.648.941 2.472.941 1.766 0 2.707-.705 2.707-2.235 0-.941-.47-1.882-1.648-2.706-.353-.353-1.412-1.059-3.06-2.117-1.766-1.177-3.06-2.236-3.884-3.177C1.766 27.412.942 25.06.942 22.235c0-2.588.941-4.706 3.06-6.47a10.954 10.954 0 0 1 6.71-2.706c4.472 0 7.18.823 8.357 2.588zM44.258 23.059c0 3.176-1.177 5.53-3.413 7.294-1.53 1.059-3.296 1.882-5.415 2.235-.353.118-2 .353-4.826.824.118 2 .118 3.647.118 5.059 0 2.117-.118 3.411-.353 3.764-.236.236-.706.236-1.53.236-1.766 0-2.825-.236-3.296-.706-.353-.236-.824-3.412-1.413-9.412-.706-6.235-1.06-11.059-1.06-14.47 0-2 .119-3.177.472-3.295C24.6 14 28.485 13.53 35.195 13.412c2.354-.118 4.237.47 5.767 1.53 2.12 1.529 3.296 4.234 3.296 8.117zm-6.827 1.53c-.117-1.765-1.295-2.824-3.766-2.942-.824.118-1.884.235-3.06.353v6.824c2.118.117 3.53 0 4.472-.236 1.766-.47 2.472-1.882 2.354-4zM70.272 21.53c.118 1.646-.236 3.294-1.06 5.058-1.294 2.706-3.53 4.353-6.591 4.941 3.178 5.295 4.826 8.589 4.944 9.765-.118.47-1.06.941-2.825 1.412-1.648.47-3.06.706-4.238.706-.47 0-.824 0-.942-.118-.235-.235-.47-.823-.706-1.53C58.266 40 57.442 37.06 56.5 33.06l-1.177.235c-.942 5.647-1.53 8.706-2.001 9.412-.236.235-.824.235-1.648.235-1.06 0-1.766-.117-2.001-.353-.236-.235-.706-4.353-1.413-12.235-.706-8-1.059-13.53-1.059-16.47 0-.942 0-1.412.118-1.53.47-.47 3.766-.706 9.887-.706 2.943 0 5.65.706 8.122 2.235 3.06 1.647 4.708 4.353 4.944 7.647zm-7.533.235c0-.941-.236-1.765-.707-2.47-.824-1.413-2.472-2.119-4.826-2.119-.47 0-.824 0-1.295.118l-.47 10.353c4.826-.353 7.298-2.353 7.298-5.882z"/>
            <path fill="url(#i)" d="M93.107 23.647c.471.47.589 1.53.589 3.294 0 2.706-.236 4.235-.824 4.706-.353.235-2.237.353-5.768.353-6.827 0-10.594-.235-11.3-.824-.353-.235-.824-3.411-1.412-9.411-.707-6.236-1.06-11.177-1.06-14.47 0-2 .118-3.177.471-3.413.589-.353 2.354-.588 5.532-.94 2.943-.236 5.65-.354 8.24-.354 2.236 0 3.531.118 3.649.353.353.706.588 2.47.588 5.294 0 1.883-.235 2.941-.588 3.06-.353.117-1.295.234-2.825.234-1.766 0-4.238-.117-7.298-.353l-.118 4.942c3.06-.236 4.826-.236 5.297 0 .118.353 0 1.53-.353 3.294l-4.944.823.118 4.353c4.473-.94 7.769-1.412 10.005-1.412.942.118 1.648.236 2.001.471z" transform="translate(0 10.588)"/>
            <path fill="url(#j)" d="M114.766 26.824c.353.823.588 1.647.588 2.47 0 .824-.235 1.647-.706 2.47-.47.236-1.883.354-4.355.354-2.237 0-4.826-.118-7.651-.236-2.708-.235-4.238-.353-4.709-.47-.353-.118-.824-2.706-1.177-7.647-.353-4.824-.588-9.294-.588-13.412 0-3.765.235-5.765.588-6.118.353-.353 1.295-.47 2.708-.47 1.412 0 2.942.117 4.472.47 1.53.236 2.472.589 2.708.941v.942c0 3.058-.824 10.353-2.472 22 3.649-.942 6.474-1.412 8.357-1.412 1.295-.235 1.883-.118 2.237.118z" transform="translate(0 10.588)"/>
            <path fill="url(#k)" d="M135.482 26.824c.353.823.589 1.647.589 2.47 0 .824-.236 1.647-.706 2.47-.471.236-1.884.354-4.356.354-2.236 0-4.826-.118-7.65-.236-2.708-.235-4.238-.353-4.709-.47-.353-.118-.824-2.706-1.177-7.647-.353-4.824-.589-9.294-.589-13.412 0-3.765.236-5.765.589-6.118.353-.353 1.295-.47 2.707-.47 1.413 0 2.943.117 4.473.47 1.53.236 2.472.589 2.707.941v.942c0 3.058-.824 10.353-2.471 22 3.648-.942 6.474-1.412 8.357-1.412 1.295-.235 1.883-.118 2.236.118z" transform="translate(0 10.588)"/>
        </g>
    </g>
</svg>
